<svg width="24" height="24" viewBox="0 0 24 24" fill="none" xmlns="http://www.w3.org/2000/svg">
<path d="M11.2729 3.687C11.1827 3.59153 11.1122 3.47923 11.0653 3.3565C11.0185 3.23377 10.9963 3.10302 11.0001 2.97172C11.0038 2.84042 11.0333 2.71113 11.087 2.59125C11.1407 2.47136 11.2174 2.36322 11.3129 2.273C11.4084 2.18279 11.5207 2.11226 11.6434 2.06544C11.7661 2.01863 11.8969 1.99644 12.0282 2.00016C12.1595 2.00387 12.2888 2.03341 12.4087 2.08709C12.5286 2.14077 12.6367 2.21753 12.7269 2.313L21.2269 11.313C21.4024 11.4987 21.5003 11.7445 21.5003 12C21.5003 12.2555 21.4024 12.5013 21.2269 12.687L12.7269 21.688C12.6373 21.7856 12.5292 21.8643 12.4088 21.9198C12.2885 21.9752 12.1584 22.0062 12.026 22.0109C11.8936 22.0156 11.7616 21.9939 11.6376 21.9472C11.5137 21.9004 11.4002 21.8295 11.3039 21.7386C11.2076 21.6476 11.1303 21.5384 11.0765 21.4173C11.0228 21.2963 10.9936 21.1657 10.9907 21.0333C10.9878 20.9008 11.0113 20.7691 11.0597 20.6458C11.1082 20.5225 11.1806 20.4101 11.2729 20.315L19.1249 12L11.2729 3.687Z" fill="black"/>
</svg>
