<svg width="24" height="24" viewBox="0 0 24 24" fill="none" xmlns="http://www.w3.org/2000/svg">
<path d="M12.7271 3.68701C12.9093 3.49419 13.0074 3.2369 12.9999 2.97172C12.9924 2.70654 12.8799 2.45521 12.6871 2.27301C12.4943 2.0908 12.237 1.99265 11.9718 2.00016C11.7066 2.00766 11.4553 2.12019 11.2731 2.31301L2.7731 11.313C2.59756 11.4987 2.49976 11.7445 2.49976 12C2.49976 12.2555 2.59756 12.5013 2.7731 12.687L11.2731 21.688C11.3627 21.7856 11.4708 21.8643 11.5912 21.9198C11.7115 21.9752 11.8416 22.0062 11.974 22.0109C12.1064 22.0156 12.2384 21.9939 12.3624 21.9472C12.4863 21.9004 12.5998 21.8295 12.6961 21.7386C12.7924 21.6476 12.8697 21.5384 12.9235 21.4173C12.9772 21.2963 13.0064 21.1657 13.0093 21.0333C13.0122 20.9008 12.9887 20.7691 12.9403 20.6458C12.8918 20.5225 12.8194 20.4101 12.7271 20.315L4.8751 12L12.7271 3.68701Z" fill="black"/>
</svg>
