<svg width="24" height="24" viewBox="0 0 24 24" fill="none" xmlns="http://www.w3.org/2000/svg">
<path d="M12 2V8C12 8.53043 12.2107 9.03914 12.5858 9.41421C12.9609 9.78929 13.4696 10 14 10H20V20C20 20.5304 19.7893 21.0391 19.4142 21.4142C19.0391 21.7893 18.5304 22 18 22H11.19C12.225 20.9226 12.8573 19.5215 12.9804 18.0326C13.1035 16.5436 12.71 15.0578 11.866 13.825C11.022 12.5922 9.77904 11.6878 8.3464 11.264C6.91376 10.8402 5.37885 10.9228 4 11.498V4C4 3.46957 4.21071 2.96086 4.58579 2.58579C4.96086 2.21071 5.46957 2 6 2H12ZM13.5 2.5V8C13.5 8.13261 13.5527 8.25979 13.6464 8.35355C13.7402 8.44732 13.8674 8.5 14 8.5H19.5L13.5 2.5ZM12 17.5C12 18.2223 11.8577 18.9375 11.5813 19.6048C11.3049 20.2721 10.8998 20.8784 10.3891 21.3891C9.87837 21.8998 9.27205 22.3049 8.60476 22.5813C7.93747 22.8577 7.22227 23 6.5 23C5.77773 23 5.06253 22.8577 4.39524 22.5813C3.72795 22.3049 3.12163 21.8998 2.61091 21.3891C2.10019 20.8784 1.69506 20.2721 1.41866 19.6048C1.14226 18.9375 1 18.2223 1 17.5C1 16.0413 1.57946 14.6424 2.61091 13.6109C3.64236 12.5795 5.04131 12 6.5 12C7.95869 12 9.35764 12.5795 10.3891 13.6109C11.4205 14.6424 12 16.0413 12 17.5ZM6.5 14C6.36739 14 6.24021 14.0527 6.14645 14.1464C6.05268 14.2402 6 14.3674 6 14.5V18.5C6 18.6326 6.05268 18.7598 6.14645 18.8536C6.24021 18.9473 6.36739 19 6.5 19C6.63261 19 6.75979 18.9473 6.85355 18.8536C6.94732 18.7598 7 18.6326 7 18.5V14.5C7 14.3674 6.94732 14.2402 6.85355 14.1464C6.75979 14.0527 6.63261 14 6.5 14ZM6.5 21.125C6.66576 21.125 6.82473 21.0592 6.94194 20.9419C7.05915 20.8247 7.125 20.6658 7.125 20.5C7.125 20.3342 7.05915 20.1753 6.94194 20.0581C6.82473 19.9408 6.66576 19.875 6.5 19.875C6.33424 19.875 6.17527 19.9408 6.05806 20.0581C5.94085 20.1753 5.875 20.3342 5.875 20.5C5.875 20.6658 5.94085 20.8247 6.05806 20.9419C6.17527 21.0592 6.33424 21.125 6.5 21.125Z" fill="black"/>
</svg>
