<svg width="24" height="24" viewBox="0 0 24 24" fill="none" xmlns="http://www.w3.org/2000/svg">
<path d="M10.295 19.715C10.4848 19.8963 10.7382 19.9957 11.0007 19.9918C11.2631 19.9878 11.5135 19.8809 11.6977 19.694C11.882 19.5071 11.9854 19.2552 11.9857 18.9928C11.9859 18.7303 11.8829 18.4783 11.699 18.291L6.32896 12.999H19.999C20.2642 12.999 20.5185 12.8937 20.7061 12.7061C20.8936 12.5186 20.999 12.2643 20.999 11.999C20.999 11.7338 20.8936 11.4795 20.7061 11.2919C20.5185 11.1044 20.2642 10.999 19.999 10.999H6.33596L11.7 5.71404C11.8839 5.52682 11.9869 5.27478 11.9867 5.01232C11.9864 4.74985 11.883 4.498 11.6987 4.31109C11.5145 4.12419 11.2641 4.01724 11.0017 4.0133C10.7392 4.00936 10.4858 4.10875 10.296 4.29004L3.36996 11.112C3.25204 11.2283 3.15841 11.3669 3.0945 11.5197C3.03059 11.6725 2.99768 11.8364 2.99768 12.002C2.99768 12.1677 3.03059 12.3316 3.0945 12.4844C3.15841 12.6372 3.25204 12.7757 3.36996 12.892L10.294 19.715H10.295Z" fill="black"/>
</svg>
