<svg width="24" height="24" viewBox="0 0 24 24" fill="none" xmlns="http://www.w3.org/2000/svg">
<path d="M12 22C6.477 22 2 17.523 2 12C2 6.477 6.477 2 12 2C17.523 2 22 6.477 22 12C22 17.523 17.523 22 12 22ZM17 13.5C17 13.1022 16.842 12.7206 16.5607 12.4393C16.2794 12.158 15.8978 12 15.5 12H8.5C8.10218 12 7.72064 12.158 7.43934 12.4393C7.15804 12.7206 7 13.1022 7 13.5V14C7 15.971 8.86 18 12 18C15.14 18 17 15.971 17 14V13.5ZM14.75 8.25C14.75 7.52065 14.4603 6.82118 13.9445 6.30546C13.4288 5.78973 12.7293 5.5 12 5.5C11.2707 5.5 10.5712 5.78973 10.0555 6.30546C9.53973 6.82118 9.25 7.52065 9.25 8.25C9.25 8.97935 9.53973 9.67882 10.0555 10.1945C10.5712 10.7103 11.2707 11 12 11C12.7293 11 13.4288 10.7103 13.9445 10.1945C14.4603 9.67882 14.75 8.97935 14.75 8.25Z" fill="black"/>
</svg>
